<svg width="10" height="16" viewBox="0 0 10 16" fill="none" xmlns="http://www.w3.org/2000/svg">
<path d="M8.75001 3H6.25001C5.78976 3 5.41668 3.3731 5.41668 3.83333V6.33333H8.75001C8.84476 6.33123 8.93468 6.37533 8.99101 6.45158C9.04734 6.52783 9.06318 6.62667 9.03334 6.71667L8.41668 8.55C8.35984 8.71825 8.20259 8.832 8.02501 8.83333H5.41668V15.0833C5.41668 15.3134 5.23009 15.5 5.00001 15.5H2.91668C2.68656 15.5 2.50001 15.3134 2.50001 15.0833V8.83333H1.25001C1.01989 8.83333 0.833344 8.64675 0.833344 8.41667V6.75C0.833344 6.51992 1.01989 6.33333 1.25001 6.33333H2.50001V3.83333C2.50001 1.99238 3.99243 0.5 5.83334 0.5H8.75001C8.98009 0.5 9.16668 0.68655 9.16668 0.916667V2.58333C9.16668 2.81345 8.98009 3 8.75001 3Z" fill="#E0E0E0"/>
</svg>
