<svg width="16" height="16" viewBox="0 0 16 16" fill="none" xmlns="http://www.w3.org/2000/svg">
<path fill-rule="evenodd" clip-rule="evenodd" d="M2.16667 0.5H13.8333C14.7538 0.5 15.5 1.24619 15.5 2.16667V13.8333C15.5 14.7538 14.7538 15.5 13.8333 15.5H2.16667C1.24619 15.5 0.5 14.7538 0.5 13.8333V2.16667C0.5 1.24619 1.24619 0.5 2.16667 0.5ZM4.66667 13C4.89678 13 5.08333 12.8134 5.08333 12.5833V6.75C5.08333 6.51992 4.89678 6.33333 4.66667 6.33333H3.41667C3.18655 6.33333 3 6.51992 3 6.75V12.5833C3 12.8134 3.18655 13 3.41667 13H4.66667ZM4.04167 5.5C3.35131 5.5 2.79167 4.94036 2.79167 4.25C2.79167 3.55964 3.35131 3 4.04167 3C4.73202 3 5.29167 3.55964 5.29167 4.25C5.29167 4.94036 4.73202 5.5 4.04167 5.5ZM12.5833 13C12.8134 13 13 12.8134 13 12.5833V8.75C13.0271 7.42567 12.048 6.29543 10.7333 6.13333C9.81417 6.04938 8.92358 6.47867 8.41667 7.25V6.75C8.41667 6.51992 8.23008 6.33333 8 6.33333H6.75C6.51992 6.33333 6.33333 6.51992 6.33333 6.75V12.5833C6.33333 12.8134 6.51992 13 6.75 13H8C8.23008 13 8.41667 12.8134 8.41667 12.5833V9.45833C8.41667 8.768 8.97633 8.20833 9.66667 8.20833C10.357 8.20833 10.9167 8.768 10.9167 9.45833V12.5833C10.9167 12.8134 11.1032 13 11.3333 13H12.5833Z" fill="#E0E0E0"/>
</svg>
