<svg width="55" height="72" viewBox="0 0 55 72" fill="none" xmlns="http://www.w3.org/2000/svg">
<path d="M54.5 35.75C54.5 45.5214 51.4528 54.3494 46.5491 60.7242C41.6459 67.0985 34.9067 71 27.5 71C20.0933 71 13.3542 67.0985 8.45088 60.7242C3.54718 54.3494 0.5 45.5214 0.5 35.75C0.5 25.9786 3.54718 17.1506 8.45088 10.7758C13.3542 4.40153 20.0933 0.5 27.5 0.5C34.9067 0.5 41.6459 4.40153 46.5491 10.7758C51.4528 17.1506 54.5 25.9786 54.5 35.75Z" stroke="#333333"/>
<path d="M27.5 48.0678C22.2865 48.0678 18.0469 43.8282 18.0469 38.6147V32.8855C18.0469 27.672 22.2865 23.4324 27.5 23.4324C32.7135 23.4324 36.9531 27.672 36.9531 32.8855V38.6147C36.9531 43.8282 32.7135 48.0678 27.5 48.0678ZM27.5 25.1511C23.2375 25.1511 19.7656 28.623 19.7656 32.8855V38.6147C19.7656 42.8772 23.2375 46.349 27.5 46.349C31.7625 46.349 35.2344 42.8772 35.2344 38.6147V32.8855C35.2344 28.623 31.7625 25.1511 27.5 25.1511Z" fill="#333333"/>
<path d="M27.5 35.4635C26.0792 35.4635 24.9219 34.3063 24.9219 32.8854V30.5938C24.9219 29.1729 26.0792 28.0156 27.5 28.0156C28.9208 28.0156 30.0781 29.1729 30.0781 30.5938V32.8854C30.0781 34.3063 28.9208 35.4635 27.5 35.4635ZM27.5 29.7344C27.0302 29.7344 26.6406 30.124 26.6406 30.5938V32.8854C26.6406 33.3552 27.0302 33.7448 27.5 33.7448C27.9698 33.7448 28.3594 33.3552 28.3594 32.8854V30.5938C28.3594 30.124 27.9698 29.7344 27.5 29.7344Z" fill="#333333"/>
<path d="M27.5 29.7345C27.0302 29.7345 26.6406 29.3449 26.6406 28.8751V24.2917C26.6406 23.822 27.0302 23.4324 27.5 23.4324C27.9698 23.4324 28.3594 23.822 28.3594 24.2917V28.8751C28.3594 29.3449 27.9698 29.7345 27.5 29.7345Z" fill="#333333"/>
</svg>
