<svg width="16" height="14" viewBox="0 0 16 14" fill="none" xmlns="http://www.w3.org/2000/svg">
<path d="M15.4773 2.59783C15.0903 3.1141 14.6225 3.56444 14.0919 3.93147C14.0919 4.06633 14.0919 4.20118 14.0919 4.34354C14.0962 6.79258 13.1179 9.14092 11.3765 10.8621C9.63501 12.5833 7.27601 13.5333 4.82839 13.4991C3.41334 13.5038 2.0164 13.1808 0.747029 12.5551C0.678579 12.5252 0.634437 12.4575 0.634695 12.3828V12.3003C0.634695 12.1928 0.72187 12.1056 0.829404 12.1056C2.22036 12.0597 3.56169 11.5774 4.66363 10.727C3.40462 10.7016 2.27184 9.95575 1.75051 8.80892C1.72419 8.74633 1.73238 8.67442 1.77215 8.61933C1.81192 8.56425 1.87751 8.53392 1.94522 8.53925C2.32786 8.57767 2.71433 8.54208 3.08351 8.43433C1.69367 8.14583 0.649354 6.992 0.499895 5.57975C0.494587 5.512 0.524945 5.44642 0.580012 5.40658C0.63507 5.36683 0.706879 5.35859 0.769495 5.385C1.14246 5.54959 1.54509 5.63625 1.95271 5.63967C0.734878 4.84039 0.208853 3.32004 0.672137 1.93852C0.719962 1.80428 0.834853 1.7051 0.974595 1.67745C1.11433 1.64979 1.25831 1.69773 1.35361 1.80366C2.997 3.55271 5.25504 4.59497 7.65159 4.71066C7.59026 4.46571 7.5601 4.21397 7.56176 3.96143C7.58418 2.63727 8.40351 1.45768 9.63618 0.974893C10.8688 0.492118 12.2708 0.801694 13.1858 1.7587C13.8095 1.63988 14.4125 1.43038 14.9756 1.13684C15.0168 1.11109 15.0692 1.11109 15.1104 1.13684C15.1362 1.17811 15.1362 1.23043 15.1104 1.2717C14.8377 1.89627 14.3769 2.4201 13.7924 2.77016C14.3043 2.7108 14.8071 2.59006 15.2902 2.41053C15.3308 2.38285 15.3843 2.38285 15.4249 2.41053C15.459 2.42612 15.4845 2.45593 15.4946 2.49202C15.5047 2.52811 15.4983 2.56682 15.4773 2.59783Z" fill="#E0E0E0"/>
</svg>
